<?xml version="1.0" encoding="UTF-8" standalone="no"?>
<svg
   xmlns:dc="http://purl.org/dc/elements/1.1/"
   xmlns:cc="http://creativecommons.org/ns#"
   xmlns:rdf="http://www.w3.org/1999/02/22-rdf-syntax-ns#"
   xmlns:svg="http://www.w3.org/2000/svg"
   xmlns="http://www.w3.org/2000/svg"
   id="svg8"
   version="1.1"
   viewBox="0 0 33.866665 33.866667"
   height="128"
   width="128">
  <title
     id="title4524">ㄶ</title>
  <defs
     id="defs2" />
  <metadata
     id="metadata5">
    <rdf:RDF>
      <cc:Work
         rdf:about="">
        <dc:format>image/svg+xml</dc:format>
        <dc:type
           rdf:resource="http://purl.org/dc/dcmitype/StillImage" />
        <dc:title>ㄶ</dc:title>
        <dc:creator>
          <cc:Agent>
            <dc:title>Oscar Javier Jiménez Mejía</dc:title>
          </cc:Agent>
        </dc:creator>
        <dc:rights>
          <cc:Agent>
            <dc:title>leojim06</dc:title>
          </cc:Agent>
        </dc:rights>
        <dc:language>Coreano</dc:language>
        <dc:publisher>
          <cc:Agent>
            <dc:title>leojim06</dc:title>
          </cc:Agent>
        </dc:publisher>
      </cc:Work>
    </rdf:RDF>
  </metadata>
  <g
     transform="translate(0,-263.13332)"
     id="layer1">
    <g
       id="text4485"
       style="font-style:normal;font-variant:normal;font-weight:bold;font-stretch:normal;font-size:6.61458302px;line-height:100%;font-family:Roboto;-inkscape-font-specification:'Roboto, Bold';text-align:start;letter-spacing:0px;word-spacing:0px;writing-mode:lr-tb;text-anchor:start;fill:#000000;fill-opacity:1;stroke:none;stroke-width:0.26458332px;stroke-linecap:butt;stroke-linejoin:miter;stroke-opacity:1"
       aria-label="ㄳ" />
    <g
       id="text4515"
       style="font-style:normal;font-variant:normal;font-weight:bold;font-stretch:normal;font-size:6.61458302px;line-height:100%;font-family:Roboto;-inkscape-font-specification:'Roboto, Bold';text-align:start;letter-spacing:0px;word-spacing:0px;writing-mode:lr-tb;text-anchor:start;fill:#000000;fill-opacity:1;stroke:none;stroke-width:0.26458332px;stroke-linecap:butt;stroke-linejoin:miter;stroke-opacity:1"
       aria-label="ㄶ">
      <path
         id="path4521"
         style="font-size:25.39999962px;stroke-width:0.26458332px"
         d="m 14.055989,278.15671 v -2.81533 h 4.688086 v -2.46806 h 3.410644 v 2.46806 h 4.725293 v 2.81533 z m 1.215429,7.46621 q -3.348632,0.91778 -8.2847652,0.91778 v -11.53418 h 3.2742192 v 8.33437 q 2.232421,-0.0372 4.303613,-0.60771 z m 5.072559,1.63711 q -2.182813,0 -3.509863,-1.22783 -1.314649,-1.22783 -1.314649,-2.88974 0,-1.68672 1.277442,-2.97657 1.289843,-1.28984 3.49746,-1.28984 2.406055,0 3.708301,1.21543 1.302246,1.21543 1.302246,2.84014 0,1.82314 -1.339453,3.07578 -1.339453,1.25263 -3.621484,1.25263 z m 0.08682,-5.76709 q -1.885156,0 -1.885156,1.5503 0,1.5999 1.885156,1.5999 0.892969,0 1.389063,-0.43408 0.508496,-0.43408 0.508496,-1.16582 0,-0.68213 -0.483692,-1.11621 -0.483691,-0.43409 -1.413867,-0.43409 z" />
    </g>
  </g>
</svg>
